<svg xmlns="http://www.w3.org/2000/svg" xmlns:xlink="http://www.w3.org/1999/xlink" viewBox="0 0 500 500"><defs><clipPath id="freepik--clip-path--inject-139"><rect x="401.33" y="130.48" width="12.56" height="12.02" style="fill:#6FC2C5"></rect></clipPath></defs><g id="freepik--background-simple--inject-139"><path d="M397.7,434.79a124.26,124.26,0,0,0,38.24-43.52c57.16-107.09,44.25-265-65.83-332.73C319.23,27.24,246,7.43,191,39.57c-44.6,26.08-71.94,75.17-94.56,119.83C82.23,187.49,70.52,217.72,53,244,30.28,278.08,5.27,323.6,30.52,363.2c34.41,53.94,99.4,78.57,158.33,94.79,63.94,17.59,135.84,20.08,194.9-14.23Q390.92,439.59,397.7,434.79Z" style="fill:#6FC2C5"></path><path d="M397.7,434.79a124.26,124.26,0,0,0,38.24-43.52c57.16-107.09,44.25-265-65.83-332.73C319.23,27.24,246,7.43,191,39.57c-44.6,26.08-71.94,75.17-94.56,119.83C82.23,187.49,70.52,217.72,53,244,30.28,278.08,5.27,323.6,30.52,363.2c34.41,53.94,99.4,78.57,158.33,94.79,63.94,17.59,135.84,20.08,194.9-14.23Q390.92,439.59,397.7,434.79Z" style="fill:#fff;opacity:0.7000000000000001"></path></g><g id="freepik--Artboard--inject-139"><rect x="120.91" y="48.39" width="267.18" height="272.82" style="fill:#263238;stroke:#263238;stroke-linecap:round;stroke-linejoin:round"></rect><line x1="129.2" y1="68.12" x2="122.51" y2="68.12" style="fill:none;stroke:#ababab;stroke-linecap:round;stroke-linejoin:round"></line><line x1="129.2" y1="80.46" x2="122.51" y2="80.46" style="fill:none;stroke:#ababab;stroke-linecap:round;stroke-linejoin:round"></line><line x1="129.2" y1="92.79" x2="122.51" y2="92.79" style="fill:none;stroke:#ababab;stroke-linecap:round;stroke-linejoin:round"></line><line x1="129.2" y1="105.13" x2="122.51" y2="105.13" style="fill:none;stroke:#ababab;stroke-linecap:round;stroke-linejoin:round"></line><line x1="129.2" y1="117.46" x2="122.51" y2="117.46" style="fill:none;stroke:#ababab;stroke-linecap:round;stroke-linejoin:round"></line><line x1="129.2" y1="129.8" x2="122.51" y2="129.8" style="fill:none;stroke:#ababab;stroke-linecap:round;stroke-linejoin:round"></line><line x1="129.2" y1="142.13" x2="122.51" y2="142.13" style="fill:none;stroke:#ababab;stroke-linecap:round;stroke-linejoin:round"></line><line x1="129.2" y1="154.46" x2="122.51" y2="154.46" style="fill:none;stroke:#ababab;stroke-linecap:round;stroke-linejoin:round"></line><line x1="129.2" y1="166.8" x2="122.51" y2="166.8" style="fill:none;stroke:#ababab;stroke-linecap:round;stroke-linejoin:round"></line><line x1="129.2" y1="179.13" x2="122.51" y2="179.13" style="fill:none;stroke:#ababab;stroke-linecap:round;stroke-linejoin:round"></line><line x1="129.2" y1="191.47" x2="122.51" y2="191.47" style="fill:none;stroke:#ababab;stroke-linecap:round;stroke-linejoin:round"></line><line x1="129.2" y1="203.8" x2="122.51" y2="203.8" style="fill:none;stroke:#ababab;stroke-linecap:round;stroke-linejoin:round"></line><line x1="129.2" y1="216.13" x2="122.51" y2="216.13" style="fill:none;stroke:#ababab;stroke-linecap:round;stroke-linejoin:round"></line><line x1="129.2" y1="228.47" x2="122.51" y2="228.47" style="fill:none;stroke:#ababab;stroke-linecap:round;stroke-linejoin:round"></line><line x1="129.2" y1="240.8" x2="122.51" y2="240.8" style="fill:none;stroke:#ababab;stroke-linecap:round;stroke-linejoin:round"></line><line x1="129.2" y1="253.14" x2="122.51" y2="253.14" style="fill:none;stroke:#ababab;stroke-linecap:round;stroke-linejoin:round"></line><line x1="129.2" y1="265.47" x2="122.51" y2="265.47" style="fill:none;stroke:#ababab;stroke-linecap:round;stroke-linejoin:round"></line><line x1="129.2" y1="277.81" x2="122.51" y2="277.81" style="fill:none;stroke:#ababab;stroke-linecap:round;stroke-linejoin:round"></line><line x1="129.2" y1="290.14" x2="122.51" y2="290.14" style="fill:none;stroke:#ababab;stroke-linecap:round;stroke-linejoin:round"></line><line x1="129.2" y1="302.47" x2="122.51" y2="302.47" style="fill:none;stroke:#ababab;stroke-linecap:round;stroke-linejoin:round"></line><line x1="129.6" y1="66.48" x2="129.6" y2="61.75" style="fill:none;stroke:#ababab;stroke-linecap:round;stroke-linejoin:round"></line><line x1="142.6" y1="66.48" x2="142.6" y2="61.75" style="fill:none;stroke:#ababab;stroke-linecap:round;stroke-linejoin:round"></line><line x1="155.61" y1="66.48" x2="155.61" y2="61.75" style="fill:none;stroke:#ababab;stroke-linecap:round;stroke-linejoin:round"></line><line x1="168.61" y1="66.48" x2="168.61" y2="61.75" style="fill:none;stroke:#ababab;stroke-linecap:round;stroke-linejoin:round"></line><line x1="181.61" y1="66.48" x2="181.61" y2="61.75" style="fill:none;stroke:#ababab;stroke-linecap:round;stroke-linejoin:round"></line><line x1="194.62" y1="66.48" x2="194.62" y2="61.75" style="fill:none;stroke:#ababab;stroke-linecap:round;stroke-linejoin:round"></line><line x1="207.62" y1="66.48" x2="207.62" y2="61.75" style="fill:none;stroke:#ababab;stroke-linecap:round;stroke-linejoin:round"></line><line x1="220.62" y1="66.48" x2="220.62" y2="61.75" style="fill:none;stroke:#ababab;stroke-linecap:round;stroke-linejoin:round"></line><line x1="233.63" y1="66.48" x2="233.63" y2="61.75" style="fill:none;stroke:#ababab;stroke-linecap:round;stroke-linejoin:round"></line><line x1="246.63" y1="66.48" x2="246.63" y2="61.75" style="fill:none;stroke:#ababab;stroke-linecap:round;stroke-linejoin:round"></line><line x1="259.63" y1="66.48" x2="259.63" y2="61.75" style="fill:none;stroke:#ababab;stroke-linecap:round;stroke-linejoin:round"></line><line x1="272.64" y1="66.48" x2="272.64" y2="61.75" style="fill:none;stroke:#ababab;stroke-linecap:round;stroke-linejoin:round"></line><line x1="285.64" y1="66.48" x2="285.64" y2="61.75" style="fill:none;stroke:#ababab;stroke-linecap:round;stroke-linejoin:round"></line><line x1="298.64" y1="66.48" x2="298.64" y2="61.75" style="fill:none;stroke:#ababab;stroke-linecap:round;stroke-linejoin:round"></line><line x1="311.65" y1="66.48" x2="311.65" y2="61.75" style="fill:none;stroke:#ababab;stroke-linecap:round;stroke-linejoin:round"></line><line x1="324.65" y1="66.48" x2="324.65" y2="61.75" style="fill:none;stroke:#ababab;stroke-linecap:round;stroke-linejoin:round"></line><line x1="337.65" y1="66.48" x2="337.65" y2="61.75" style="fill:none;stroke:#ababab;stroke-linecap:round;stroke-linejoin:round"></line><line x1="350.66" y1="66.48" x2="350.66" y2="61.75" style="fill:none;stroke:#ababab;stroke-linecap:round;stroke-linejoin:round"></line><line x1="363.66" y1="66.48" x2="363.66" y2="61.75" style="fill:none;stroke:#ababab;stroke-linecap:round;stroke-linejoin:round"></line><rect x="379.38" y="48.39" width="8.72" height="272.82" style="fill:#696969;stroke:#263238;stroke-linecap:round;stroke-linejoin:round"></rect><rect x="379.38" y="180.87" width="8.72" height="23.43" style="fill:#263238;stroke:#263238;stroke-linecap:round;stroke-linejoin:round"></rect><rect x="120.91" y="312.85" width="267.18" height="8.36" style="fill:#696969;stroke:#263238;stroke-linecap:round;stroke-linejoin:round"></rect><rect x="129.2" y="68.12" width="250.61" height="244.62" style="fill:#fff;stroke:#263238;stroke-linecap:round;stroke-linejoin:round"></rect><line x1="128.97" y1="235.78" x2="380.05" y2="235.78" style="fill:#fff;stroke:#263238;stroke-linecap:round;stroke-linejoin:round"></line><rect x="120.91" y="48.39" width="267.18" height="11.98" style="fill:#696969;stroke:#263238;stroke-linecap:round;stroke-linejoin:round"></rect><rect x="120.91" y="48.39" width="74.02" height="11.98" style="fill:#8a8a8a;stroke:#263238;stroke-linecap:round;stroke-linejoin:round"></rect><path d="M249.15,249.14c-.14-.67-1.14-1.28-2.77-1.55l-1.13-34.4a1.39,1.39,0,0,0-2.77.09l1.12,34.19c-2.21.14-4.07.86-3.88,1.67C240.09,250.76,249.71,251.82,249.15,249.14Z" style="fill:#fff;stroke:#263238;stroke-linecap:round;stroke-linejoin:round"></path><path d="M294.08,183.05s4.91,2,3.27,6.14-12.69,18.42-23.34,21.7-19.24,2.05-27.43,2.45-31.11.82-37.25,0a32.26,32.26,0,0,1-9.42-2.45s8.19,3.68,22.93-11.88S240,169.54,262.55,170,294.08,183.05,294.08,183.05Z" style="fill:#fff;stroke:#263238;stroke-linecap:round;stroke-linejoin:round"></path><path d="M217.1,185.5s-4.91-7.37-12.28-10.23-37.67-9.83-41.76-3.69,7.37,21.7,18.42,30.3,22.52,12.69,33.58,10.24S251.5,183.46,256,181s34.39.41,38.08,2.05c0,0,15.56-52,15.56-55.69s-4.92-2.86-8.6,1.64-24.16,14.74-45.45,7.78S229,116.72,220,124.09s-11.46,27-7,43.4S217.1,185.5,217.1,185.5Z" style="fill:#6FC2C5;stroke:#263238;stroke-linecap:round;stroke-linejoin:round"></path><path d="M194.84,202c-.75-.29-1.52-.6-2.3-.93" style="fill:none;stroke:#263238;stroke-linecap:round;stroke-linejoin:round"></path><path d="M290.39,179.77s-28.66-4.09-34-2.45-15.15,16-27.84,22.51c-10.6,5.47-19.2,6.66-29.62,3.57" style="fill:none;stroke:#263238;stroke-linecap:round;stroke-linejoin:round"></path><path d="M230.33,196.3c.5.24,1,.46,1.51.67" style="fill:none;stroke:#263238;stroke-linecap:round;stroke-linejoin:round"></path><path d="M217.1,185.5a46.52,46.52,0,0,0,11.19,9.71" style="fill:none;stroke:#263238;stroke-linecap:round;stroke-linejoin:round"></path><path d="M198,210.1a1.39,1.39,0,0,0-1.73.92l-16.87,55.06c-3.19.06-5.73,1-5.73,2.18s2.71,2.19,6.05,2.19,6.06-1,6.06-2.19c0-.88-1.45-1.64-3.54-2l16.68-54.44A1.39,1.39,0,0,0,198,210.1Z" style="fill:#fff;stroke:#263238;stroke-linecap:round;stroke-linejoin:round"></path><path d="M250.21,284.52l-1.55-73.12a1.37,1.37,0,0,0-1.42-1.36,1.39,1.39,0,0,0-1.36,1.42l1.56,73c-2.78.2-4.87,1.09-4.87,2.15s2.71,2.19,6.06,2.19,6.06-1,6.06-2.19C254.69,285.62,252.79,284.77,250.21,284.52Z" style="fill:#fff;stroke:#263238;stroke-linecap:round;stroke-linejoin:round"></path><path d="M309.12,265.2l-14.61-70.68a1.39,1.39,0,0,0-2.72.56l14.51,70.21c-1.84.25-3.14.89-3.14,1.65,0,1,2.2,1.78,4.92,1.78s4.92-.8,4.92-1.78S311.34,265.37,309.12,265.2Z" style="fill:#fff;stroke:#263238;stroke-linecap:round;stroke-linejoin:round"></path><path d="M314.72,163.56l-22.64-10.33,10.48,22.57,2.85-7.75,7.64,7.6a1.12,1.12,0,0,0,1.58-1.59l-7.77-7.72Z" style="fill:#fff;stroke:#263238;stroke-linecap:round;stroke-linejoin:round"></path><polyline points="316.51 183.06 316.51 183.56 316.01 183.56" style="fill:none;stroke:#263238;stroke-linecap:round;stroke-linejoin:round;stroke-width:0.5px"></polyline><line x1="315.11" y1="183.56" x2="308.37" y2="183.56" style="fill:none;stroke:#263238;stroke-linecap:round;stroke-linejoin:round;stroke-width:0.5px;stroke-dasharray:0.8984060287475586,0.8984060287475586"></line><polyline points="307.92 183.56 307.42 183.56 307.42 183.06" style="fill:none;stroke:#263238;stroke-linecap:round;stroke-linejoin:round;stroke-width:0.5px"></polyline><line x1="307.42" y1="182.05" x2="307.42" y2="176.44" style="fill:none;stroke:#263238;stroke-linecap:round;stroke-linejoin:round;stroke-width:0.5px;stroke-dasharray:1.018470048904419,1.018470048904419"></line><polyline points="307.42 175.94 307.42 175.44 307.92 175.44" style="fill:none;stroke:#263238;stroke-linecap:round;stroke-linejoin:round;stroke-width:0.5px"></polyline><line x1="308.82" y1="175.43" x2="315.56" y2="175.43" style="fill:none;stroke:#263238;stroke-linecap:round;stroke-linejoin:round;stroke-width:0.5px;stroke-dasharray:0.8984060287475586,0.8984060287475586"></line><polyline points="316.01 175.44 316.51 175.44 316.51 175.94" style="fill:none;stroke:#263238;stroke-linecap:round;stroke-linejoin:round;stroke-width:0.5px"></polyline><line x1="316.51" y1="176.95" x2="316.51" y2="182.55" style="fill:none;stroke:#263238;stroke-linecap:round;stroke-linejoin:round;stroke-width:0.5px;stroke-dasharray:1.018470048904419,1.018470048904419"></line><rect x="311.25" y="177.83" width="10.52" height="10.52" style="fill:#fff;stroke:#263238;stroke-linecap:round;stroke-linejoin:round"></rect><line x1="316.39" y1="179.71" x2="316.39" y2="185.97" style="fill:none;stroke:#263238;stroke-linecap:round;stroke-linejoin:round"></line><line x1="313.03" y1="183.06" x2="319.74" y2="183.06" style="fill:none;stroke:#263238;stroke-linecap:round;stroke-linejoin:round"></line><circle cx="164.45" cy="99.19" r="22.76" style="fill:#fff;stroke:#263238;stroke-linecap:round;stroke-linejoin:round"></circle><circle cx="164.45" cy="99.19" r="18.08" style="fill:#fff;stroke:#263238;stroke-linecap:round;stroke-linejoin:round"></circle><circle cx="164.45" cy="99.19" r="1.7" style="fill:#fff;stroke:#263238;stroke-linecap:round;stroke-linejoin:round"></circle><line x1="166.15" y1="99.19" x2="172.78" y2="101.77" style="fill:none;stroke:#263238;stroke-linecap:round;stroke-linejoin:round"></line><line x1="164.45" y1="97.49" x2="164.45" y2="84.66" style="fill:none;stroke:#263238;stroke-linecap:round;stroke-linejoin:round"></line></g><g id="freepik--tools-2--inject-139"><rect x="326.48" y="77.67" width="108.39" height="71.74" style="fill:#263238"></rect><rect x="363.21" y="80.66" width="71.67" height="13.79" style="fill:#fff;opacity:0.1"></rect><polygon points="363.21 94.46 363.21 80.67 326.48 80.67 326.48 149.41 434.88 149.41 434.88 94.46 363.21 94.46" style="fill:#fff;opacity:0.2"></polygon><line x1="413.07" y1="98.36" x2="418.28" y2="98.36" style="fill:none;stroke:#fff;stroke-linecap:round;stroke-linejoin:round;stroke-width:0.5px"></line><line x1="413.07" y1="100.35" x2="418.28" y2="100.35" style="fill:none;stroke:#fff;stroke-linecap:round;stroke-linejoin:round;stroke-width:0.5px"></line><line x1="413.07" y1="102.33" x2="418.28" y2="102.33" style="fill:none;stroke:#fff;stroke-linecap:round;stroke-linejoin:round;stroke-width:0.5px"></line><line x1="413.07" y1="104.32" x2="418.28" y2="104.32" style="fill:none;stroke:#fff;stroke-linecap:round;stroke-linejoin:round;stroke-width:0.5px"></line><line x1="413.07" y1="106.31" x2="418.28" y2="106.31" style="fill:none;stroke:#fff;stroke-linecap:round;stroke-linejoin:round;stroke-width:0.5px"></line><rect x="421.32" y="97.54" width="9.44" height="9.44" style="fill:#263238;opacity:0.8"></rect><rect x="422.58" y="98.61" width="1.88" height="1.88" style="fill:#fff"></rect><rect x="425.05" y="98.61" width="1.88" height="1.88" style="fill:#fff"></rect><rect x="427.52" y="98.61" width="1.88" height="1.88" style="fill:#fff"></rect><rect x="422.58" y="101.09" width="1.88" height="1.88" style="fill:#fff"></rect><rect x="425.05" y="101.09" width="1.88" height="1.88" style="fill:#fff"></rect><rect x="427.52" y="101.09" width="1.88" height="1.88" style="fill:#fff"></rect><rect x="422.58" y="103.56" width="1.88" height="1.88" style="fill:#fff"></rect><rect x="425.05" y="103.56" width="1.88" height="1.88" style="fill:#fff"></rect><rect x="427.52" y="103.56" width="1.88" height="1.88" style="fill:#fff"></rect><rect x="387.45" y="118.35" width="12.65" height="11.35" style="fill:#263238"></rect><rect x="346.42" y="118.35" width="12.65" height="11.35" style="fill:#263238"></rect><rect x="346.42" y="118.35" width="12.65" height="11.35" style="fill:#fff;opacity:0.75"></rect><rect x="332.75" y="118.35" width="12.64" height="11.35" style="fill:#fff;opacity:0.75"></rect><rect x="373.78" y="118.35" width="12.65" height="11.35" style="fill:#263238"></rect><rect x="373.78" y="118.35" width="12.65" height="11.35" style="fill:#fff;opacity:0.15"></rect><rect x="360.1" y="118.35" width="12.64" height="11.35" style="fill:#263238"></rect><rect x="360.1" y="118.35" width="12.64" height="11.35" style="fill:#fff;opacity:0.25"></rect><rect x="401.33" y="130.48" width="12.56" height="12.02" style="fill:#6FC2C5"></rect><g style="clip-path:url(#freepik--clip-path--inject-139)"><rect x="401.33" y="130.48" width="12.56" height="12.02" style="opacity:0.5"></rect></g><rect x="387.61" y="130.48" width="12.56" height="12.02" style="fill:#6FC2C5"></rect><rect x="387.61" y="130.48" width="12.56" height="12.02" style="opacity:0.2"></rect><rect x="373.9" y="130.48" width="12.56" height="12.02" style="fill:#6FC2C5"></rect><rect x="360.19" y="130.48" width="12.56" height="12.02" style="fill:#6FC2C5"></rect><rect x="360.19" y="130.48" width="12.56" height="12.02" style="fill:#6FC2C5;opacity:0.30000000000000004"></rect><rect x="346.47" y="130.48" width="12.56" height="12.02" style="fill:#6FC2C5"></rect><rect x="346.47" y="130.48" width="12.56" height="12.02" style="fill:#fff;opacity:0.6000000000000001"></rect><rect x="332.76" y="130.48" width="12.56" height="12.02" style="fill:#fff"></rect><rect x="414.98" y="130.48" width="12.56" height="12.02" style="fill:#6FC2C5"></rect><rect x="414.98" y="130.48" width="12.56" height="12.02" style="opacity:0.8"></rect><rect x="336.74" y="101.21" width="8.49" height="8.12" style="fill:none;stroke:#263238;stroke-linecap:round;stroke-linejoin:round;stroke-width:2px"></rect><rect x="332.78" y="96.63" width="8.49" height="8.12" style="fill:#6FC2C5"></rect><rect x="332.78" y="96.63" width="8.49" height="8.12" style="fill:#6FC2C5;opacity:0.30000000000000004"></rect><line x1="334.12" y1="87.86" x2="356.01" y2="87.86" style="fill:none;stroke:#fff;stroke-linecap:round;stroke-linejoin:round;stroke-width:2px"></line><polygon points="415.22 83.96 415.22 84.69 416.73 85.96 415.22 87.22 415.22 87.95 417.59 85.96 415.22 83.96" style="fill:#fff"></polygon><polygon points="417.81 83.96 417.81 84.69 419.32 85.96 417.81 87.22 417.81 87.95 420.18 85.96 417.81 83.96" style="fill:#fff"></polygon><line x1="423.18" y1="82.76" x2="423.18" y2="89.66" style="fill:none;stroke:#fff;stroke-linecap:round;stroke-linejoin:round;stroke-width:0.5px"></line><line x1="426.18" y1="84.86" x2="431.58" y2="84.86" style="fill:none;stroke:#fff;stroke-linecap:round;stroke-linejoin:round;stroke-width:0.5px"></line><line x1="426.18" y1="86.06" x2="431.58" y2="86.06" style="fill:none;stroke:#fff;stroke-linecap:round;stroke-linejoin:round;stroke-width:0.5px"></line><line x1="426.18" y1="87.26" x2="431.58" y2="87.26" style="fill:none;stroke:#fff;stroke-linecap:round;stroke-linejoin:round;stroke-width:0.5px"></line><line x1="426.18" y1="88.46" x2="431.58" y2="88.46" style="fill:none;stroke:#fff;stroke-linecap:round;stroke-linejoin:round;stroke-width:0.5px"></line></g><g id="freepik--tools-1--inject-139"><rect x="52.98" y="218.47" width="108.39" height="71.74" style="fill:#263238"></rect><rect x="89.7" y="221.46" width="71.67" height="13.79" style="fill:#fff;opacity:0.1"></rect><polygon points="89.7 235.26 89.7 221.47 52.98 221.47 52.98 290.2 161.37 290.2 161.37 235.26 89.7 235.26" style="fill:#fff;opacity:0.2"></polygon><rect x="63.24" y="242.01" width="8.49" height="8.12" style="fill:none;stroke:#263238;stroke-linecap:round;stroke-linejoin:round;stroke-width:2px"></rect><rect x="59.28" y="237.43" width="8.49" height="8.12" style="fill:#6FC2C5"></rect><rect x="59.28" y="237.43" width="8.49" height="8.12" style="fill:#6FC2C5;opacity:0.30000000000000004"></rect><line x1="60.61" y1="228.66" x2="82.51" y2="228.66" style="fill:none;stroke:#fff;stroke-linecap:round;stroke-linejoin:round;stroke-width:2px"></line><polygon points="141.72 224.76 141.72 225.49 143.22 226.76 141.72 228.02 141.72 228.75 144.09 226.76 141.72 224.76" style="fill:#fff"></polygon><polygon points="144.31 224.76 144.31 225.49 145.81 226.76 144.31 228.02 144.31 228.75 146.68 226.76 144.31 224.76" style="fill:#fff"></polygon><line x1="149.68" y1="223.56" x2="149.68" y2="230.46" style="fill:none;stroke:#fff;stroke-linecap:round;stroke-linejoin:round;stroke-width:0.5px"></line><line x1="152.68" y1="225.66" x2="158.07" y2="225.66" style="fill:none;stroke:#fff;stroke-linecap:round;stroke-linejoin:round;stroke-width:0.5px"></line><line x1="152.68" y1="226.86" x2="158.07" y2="226.86" style="fill:none;stroke:#fff;stroke-linecap:round;stroke-linejoin:round;stroke-width:0.5px"></line><line x1="152.68" y1="228.06" x2="158.07" y2="228.06" style="fill:none;stroke:#fff;stroke-linecap:round;stroke-linejoin:round;stroke-width:0.5px"></line><line x1="152.68" y1="229.26" x2="158.07" y2="229.26" style="fill:none;stroke:#fff;stroke-linecap:round;stroke-linejoin:round;stroke-width:0.5px"></line><line x1="85.49" y1="245.58" x2="130.04" y2="245.58" style="fill:none;stroke:#9e9e9e;stroke-miterlimit:10;stroke-width:3px"></line><polygon points="86.72 246.66 84.83 248.89 84.83 250.56 88.72 250.56 88.72 248.89 86.72 246.66" style="fill:#8f8f8f"></polygon><line x1="85.49" y1="258.07" x2="130.04" y2="258.07" style="fill:none;stroke:#6FC2C5;stroke-miterlimit:10;stroke-width:3px"></line><polygon points="127.65 259.14 125.77 261.38 125.77 263.05 129.66 263.05 129.66 261.38 127.65 259.14" style="fill:#8f8f8f"></polygon><line x1="85.49" y1="270.55" x2="130.04" y2="270.55" style="fill:none;stroke:#fff;stroke-miterlimit:10;stroke-width:3px"></line><polygon points="85.79 271.63 83.91 273.87 83.91 275.54 87.8 275.54 87.8 273.87 85.79 271.63" style="fill:#8f8f8f"></polygon><rect x="129.61" y="279.24" width="16.42" height="6.94" style="fill:#263238"></rect><rect x="132.15" y="266.52" width="13.41" height="6.94" style="fill:#263238"></rect><rect x="132.15" y="254.72" width="13.41" height="6.94" style="fill:#263238"></rect><rect x="132.15" y="242.93" width="13.41" height="6.94" style="fill:#263238"></rect></g></svg>